<svg width="48" height="48" viewBox="0 0 48 48" fill="none" xmlns="http://www.w3.org/2000/svg">
  <defs>
    <linearGradient id="logoGradient" x1="0%" y1="0%" x2="100%" y2="100%">
      <stop offset="0%" style="stop-color:#3B82F6;stop-opacity:1" />
      <stop offset="100%" style="stop-color:#8B5CF6;stop-opacity:1" />
    </linearGradient>
  </defs>
  
  <!-- Background circle -->
  <circle cx="24" cy="24" r="22" fill="url(#logoGradient)" stroke="#1E40AF" stroke-width="2"/>
  
  <!-- Shield icon representing security -->
  <path d="M24 6L32 10V18C32 26 24 34 24 34S16 26 16 18V10L24 6Z" fill="white" stroke="#1E40AF" stroke-width="1.5"/>
  
  <!-- Eye icon representing detection -->
  <ellipse cx="24" cy="18" rx="6" ry="4" fill="#1E40AF"/>
  <circle cx="24" cy="18" r="2" fill="white"/>
  
  <!-- Sound waves representing audio analysis -->
  <path d="M12 20C12 20 14 18 14 20S12 22 12 20Z" fill="white" opacity="0.8"/>
  <path d="M10 20C10 20 12.5 17 12.5 20S10 23 10 20Z" fill="white" opacity="0.6"/>
  
  <!-- Video frame representing video analysis -->
  <rect x="28" y="26" width="8" height="6" rx="1" fill="white" opacity="0.8"/>
  <rect x="30" y="28" width="4" height="2" fill="#1E40AF" opacity="0.6"/>
  
  <!-- Indian flag colors accent -->
  <rect x="20" y="38" width="8" height="2" fill="#FF9933" opacity="0.7"/>
  <rect x="20" y="40" width="8" height="2" fill="#138808" opacity="0.7"/>
</svg>